<svg width="18" height="18" viewBox="0 0 18 18" fill="none" xmlns="http://www.w3.org/2000/svg">
<path d="M0.44635 7.53521C0.44635 3.90515 3.38982 0.964966 7.0207 0.964966H10.6064C14.294 0.964966 17.2826 3.95443 17.2826 7.64198C17.2826 10.073 15.9628 12.3069 13.8365 13.4813L7.22192 17.1442V14.1137H7.16689C3.47934 14.1958 0.44635 11.231 0.44635 7.53521ZM7.0207 2.60753C4.29651 2.60753 2.08891 4.81677 2.08891 7.53521C2.08891 10.3029 4.36386 12.5286 7.12993 12.4711L7.4182 12.4629H8.86448V14.3518L13.0423 12.044C14.6447 11.1571 15.64 9.47344 15.64 7.64198C15.64 4.85784 13.3865 2.60753 10.6064 2.60753H7.0207Z" fill="#6D6D6D"/>
</svg>
