<svg width="26" height="26" viewBox="0 0 26 26" fill="none" xmlns="http://www.w3.org/2000/svg">
<path d="M9.96564 7.23291V4.34717C9.96564 3.58182 10.2359 2.84782 10.7169 2.30664C11.198 1.76546 11.8504 1.46143 12.5307 1.46143H21.5086C22.1889 1.46143 22.8414 1.76546 23.3224 2.30664C23.8035 2.84782 24.0737 3.58182 24.0737 4.34717V21.6616C24.0737 22.427 23.8035 23.161 23.3224 23.7021C22.8414 24.2433 22.1889 24.5474 21.5086 24.5474H12.5307C11.8504 24.5474 11.198 24.2433 10.7169 23.7021C10.2359 23.161 9.96564 22.427 9.96564 21.6616V18.7759" stroke="black" stroke-width="1.92383" stroke-linecap="round" stroke-linejoin="round"/>
<path d="M16.3784 13.0044H0.987793M0.987793 13.0044L4.83545 8.67578M0.987793 13.0044L4.83545 17.333" stroke="black" stroke-width="1.92383" stroke-linecap="round" stroke-linejoin="round"/>
</svg>
