<svg width="24" height="24" viewBox="0 0 24 24" fill="none" xmlns="http://www.w3.org/2000/svg">
<path d="M23.2793 22.1412C21.5905 19.1051 18.9881 16.928 15.951 15.896C17.4533 14.966 18.6205 13.5489 19.2733 11.8623C19.9261 10.1757 20.0285 8.31286 19.5648 6.55989C19.101 4.80691 18.0967 3.26071 16.7061 2.15874C15.3155 1.05677 13.6155 0.459961 11.8672 0.459961C10.1189 0.459961 8.41887 1.05677 7.02828 2.15874C5.63769 3.26071 4.63339 4.80691 4.16962 6.55989C3.70584 8.31286 3.80824 10.1757 4.46107 11.8623C5.11391 13.5489 6.28108 14.966 7.78336 15.896C4.74628 16.9269 2.14385 19.1039 0.455101 22.1412C0.393172 22.2462 0.352094 22.363 0.334293 22.4848C0.316491 22.6066 0.322326 22.7308 0.351452 22.8502C0.380579 22.9697 0.432408 23.0818 0.503881 23.18C0.575353 23.2782 0.665022 23.3606 0.767597 23.4222C0.870172 23.4838 0.983575 23.5235 1.10111 23.5388C1.21865 23.5541 1.33795 23.5447 1.45196 23.5113C1.56598 23.4779 1.6724 23.421 1.76495 23.3442C1.8575 23.2673 1.9343 23.1719 1.99083 23.0636C4.07987 19.3092 7.77228 17.0676 11.8672 17.0676C15.9621 17.0676 19.6545 19.3092 21.7435 23.0636C21.8001 23.1719 21.8769 23.2673 21.9694 23.3442C22.062 23.421 22.1684 23.4779 22.2824 23.5113C22.3964 23.5447 22.5157 23.5541 22.6333 23.5388C22.7508 23.5235 22.8642 23.4838 22.9668 23.4222C23.0694 23.3606 23.159 23.2782 23.2305 23.18C23.302 23.0818 23.3538 22.9697 23.3829 22.8502C23.412 22.7308 23.4179 22.6066 23.4001 22.4848C23.3823 22.363 23.3412 22.2462 23.2793 22.1412ZM5.65774 8.76533C5.65774 7.4882 6.02191 6.23975 6.70422 5.17785C7.38652 4.11596 8.3563 3.28831 9.49093 2.79957C10.6256 2.31083 11.8741 2.18296 13.0786 2.43211C14.2831 2.68127 15.3895 3.29627 16.2579 4.19934C17.1263 5.10241 17.7177 6.25299 17.9573 7.50558C18.1969 8.75817 18.074 10.0565 17.604 11.2364C17.134 12.4163 16.3381 13.4248 15.317 14.1344C14.2958 14.8439 13.0953 15.2226 11.8672 15.2226C10.2209 15.2208 8.6425 14.5399 7.47839 13.3293C6.31427 12.1187 5.6595 10.4774 5.65774 8.76533Z" fill="black"/>
</svg>
