<svg width="21" height="14" viewBox="0 0 21 14" fill="none" xmlns="http://www.w3.org/2000/svg">
<path d="M4.25775 0.508911L7.89766 3.90901L6.77744 5.10808L5.07903 3.52301V10.4628C5.07903 11.3662 5.81489 12.1054 6.72159 12.1054H11.2386V13.748H6.72159C4.90738 13.748 3.43646 12.2779 3.43646 10.4628V3.52301L1.73806 5.10808L0.617828 3.90901L4.25775 0.508911ZM14.1131 2.25003H9.59607V0.607465H14.1131C15.9273 0.607465 17.3982 2.07756 17.3982 3.89259V10.8324L19.0967 9.24734L20.2169 10.4464L16.577 13.8465L12.937 10.4464L14.0573 9.24734L15.7557 10.8324V3.89259C15.7557 2.98918 15.0198 2.25003 14.1131 2.25003Z" fill="#6D6D6D"/>
</svg>
