<svg width="24" height="24" viewBox="0 0 24 24" fill="none" xmlns="http://www.w3.org/2000/svg">
<path d="M21.533 12.9011C21.3446 12.6905 21.2408 12.4198 21.2408 12.1394C21.2408 11.8591 21.3446 11.5883 21.533 11.3777L23.0369 9.71571C23.2026 9.53413 23.3055 9.30565 23.3309 9.06305C23.3562 8.82046 23.3027 8.57621 23.1779 8.36537L20.8281 4.37204C20.7046 4.16144 20.5166 3.9945 20.2908 3.89502C20.0651 3.79554 19.8131 3.76861 19.5709 3.81806L17.362 4.25663C17.081 4.31368 16.7884 4.2677 16.5394 4.12736C16.2905 3.98703 16.1025 3.76206 16.0109 3.4949L15.2942 1.38282C15.2153 1.15358 15.0652 0.954479 14.8649 0.813647C14.6646 0.672815 14.4243 0.597381 14.178 0.598005H9.47828C9.22207 0.584869 8.96852 0.654473 8.75637 0.796187C8.54421 0.937901 8.38511 1.14394 8.30336 1.38282L7.6454 3.4949C7.55376 3.76206 7.36574 3.98703 7.11682 4.12736C6.8679 4.2677 6.5753 4.31368 6.29424 4.25663L4.02663 3.81806C3.79699 3.78618 3.56289 3.82177 3.35381 3.92036C3.14473 4.01894 2.97002 4.1761 2.85171 4.37204L0.501857 8.36537C0.373978 8.57386 0.31648 8.81673 0.337582 9.05926C0.358684 9.30179 0.457307 9.53156 0.619349 9.71571L2.1115 11.3777C2.29987 11.5883 2.40375 11.8591 2.40375 12.1394C2.40375 12.4198 2.29987 12.6905 2.1115 12.9011L0.619349 14.5631C0.457307 14.7473 0.358684 14.977 0.337582 15.2195C0.31648 15.4621 0.373978 15.7049 0.501857 15.9134L2.85171 19.9068C2.97519 20.1174 3.1632 20.2843 3.38894 20.3838C3.61469 20.4833 3.86664 20.5102 4.10888 20.4608L6.31773 20.0222C6.5988 19.9651 6.8914 20.0111 7.14032 20.1514C7.38923 20.2918 7.57726 20.5167 7.6689 20.7839L8.3856 22.896C8.46735 23.1349 8.62646 23.3409 8.83861 23.4826C9.05077 23.6243 9.30432 23.6939 9.56053 23.6808H14.2602C14.5065 23.6814 14.7468 23.606 14.9471 23.4652C15.1474 23.3243 15.2976 23.1252 15.3764 22.896L16.0931 20.7839C16.1848 20.5167 16.3728 20.2918 16.6217 20.1514C16.8706 20.0111 17.1632 19.9651 17.4443 20.0222L19.6531 20.4608C19.8954 20.5102 20.1473 20.4833 20.3731 20.3838C20.5988 20.2843 20.7868 20.1174 20.9103 19.9068L23.2602 15.9134C23.3849 15.7026 23.4384 15.4584 23.4131 15.2158C23.3878 14.9732 23.2849 14.7447 23.1192 14.5631L21.533 12.9011ZM19.7824 14.4477L20.7223 15.4864L19.2184 18.0486L17.832 17.7716C16.9858 17.6017 16.1055 17.7429 15.3583 18.1684C14.6111 18.5939 14.0489 19.2741 13.7785 20.0799L13.332 21.3725H10.3242L9.90126 20.0568C9.63085 19.251 9.06868 18.5708 8.32146 18.1453C7.57423 17.7198 6.69397 17.5786 5.84776 17.7485L4.46135 18.0255L2.93395 15.4749L3.87389 14.4361C4.4519 13.8013 4.77145 12.9795 4.77145 12.1279C4.77145 11.2762 4.4519 10.4544 3.87389 9.81958L2.93395 8.78086L4.43786 6.24175L5.82427 6.51874C6.67047 6.68866 7.55073 6.54746 8.29796 6.12195C9.04518 5.69644 9.60735 5.01624 9.87776 4.21046L10.3242 2.90628H13.332L13.7785 4.222C14.0489 5.02778 14.6111 5.70798 15.3583 6.13349C16.1055 6.559 16.9858 6.7002 17.832 6.53028L19.2184 6.25329L20.7223 8.81548L19.7824 9.85421C19.2109 10.4876 18.8953 11.3046 18.8953 12.1509C18.8953 12.9973 19.2109 13.8143 19.7824 14.4477ZM11.8281 7.52284C10.8986 7.52284 9.98998 7.7936 9.21712 8.30088C8.44426 8.80815 7.84189 9.52916 7.48618 10.3727C7.13047 11.2163 7.0374 12.1445 7.21874 13.0401C7.40008 13.9356 7.84768 14.7582 8.50494 15.4038C9.16221 16.0494 9.99961 16.4891 10.9113 16.6673C11.8229 16.8454 12.7679 16.754 13.6266 16.4045C14.4854 16.0551 15.2194 15.4634 15.7358 14.7042C16.2522 13.945 16.5278 13.0525 16.5278 12.1394C16.5278 10.915 16.0327 9.74078 15.1513 8.875C14.27 8.00923 13.0746 7.52284 11.8281 7.52284ZM11.8281 14.4477C11.3634 14.4477 10.9091 14.3123 10.5226 14.0587C10.1362 13.805 9.83501 13.4445 9.65715 13.0227C9.4793 12.601 9.43277 12.1368 9.52343 11.6891C9.6141 11.2413 9.8379 10.83 10.1665 10.5072C10.4952 10.1844 10.9139 9.96454 11.3697 9.87548C11.8255 9.78641 12.298 9.83212 12.7274 10.0068C13.1568 10.1815 13.5238 10.4774 13.782 10.857C14.0402 11.2366 14.178 11.6829 14.178 12.1394C14.178 12.7516 13.9304 13.3387 13.4897 13.7716C13.049 14.2045 12.4514 14.4477 11.8281 14.4477Z" fill="black"/>
</svg>
